/* XPM */
static char *image_61738162759[] = {
/* columns rows colors chars-per-pixel */
"64 64 218 2 ",
"   c #0D0B0C",
".  c #090708",
"X  c #100E0E",
"o  c #12110E",
"O  c #110E10",
"+  c #141213",
"@  c #1A1514",
"#  c #1D1916",
"$  c #1D1B1B",
"%  c #181718",
"&  c #0F0E10",
"*  c #211A16",
"=  c #221D1B",
"-  c #2B1E1A",
";  c #25211D",
":  c #2B231E",
">  c #2B281F",
",  c #32241B",
"<  c #1F1E20",
"1  c #211F21",
"2  c #242223",
"3  c #2B2523",
"4  c #2E2925",
"5  c #2D2B2B",
"6  c #272628",
"7  c #322C25",
"8  c #322D2B",
"9  c #392C27",
"0  c #35312D",
"q  c #3A322D",
"w  c #2E2E30",
"e  c #343334",
"r  c #3A3532",
"t  c #3D3A36",
"y  c #3C3B3C",
"u  c #383739",
"i  c #302E31",
"p  c #57392B",
"a  c #433D3A",
"s  c #453A36",
"d  c #573E33",
"f  c #49332A",
"g  c #45413E",
"h  c #4A423E",
"j  c #58453A",
"k  c #5F402E",
"l  c #744E3C",
"z  c #664A39",
"x  c #3E3E40",
"c  c #403E41",
"v  c #3F464C",
"b  c #444343",
"n  c #4B4542",
"m  c #4D4946",
"M  c #4C4B4B",
"N  c #464749",
"B  c #524644",
"V  c #524946",
"C  c #534D4A",
"Z  c #594E4C",
"A  c #5C4A42",
"S  c #56514E",
"D  c #5B514E",
"F  c #4C4E51",
"G  c #4D5256",
"H  c #545454",
"J  c #5C5452",
"K  c #5D5955",
"L  c #55565A",
"P  c #5C5B5B",
"I  c #56585B",
"U  c #685449",
"Y  c #605654",
"T  c #625956",
"R  c #645C5A",
"E  c #685E5C",
"W  c #6D5D51",
"Q  c #735A4B",
"!  c #66615D",
"~  c #6A625D",
"^  c #6E6056",
"/  c #7B6453",
"(  c #74655A",
")  c #76604B",
"_  c #5C5D61",
"`  c #435360",
"'  c #5E6266",
"]  c #646364",
"[  c #6C6562",
"{  c #6D6965",
"}  c #646569",
"|  c #65696D",
" . c #6C6B6C",
".. c #716662",
"X. c #736A65",
"o. c #746D6A",
"O. c #796C65",
"+. c #76716E",
"@. c #6C6E72",
"#. c #656D73",
"$. c #6D7174",
"%. c #6B7378",
"&. c #7B7572",
"*. c #7E7975",
"=. c #74767A",
"-. c #7C7B7C",
";. c #757677",
":. c #836957",
">. c #8A715D",
",. c #966A4F",
"<. c #877567",
"1. c #957D69",
"2. c #817975",
"3. c #837D7A",
"4. c #867973",
"5. c #877469",
"6. c #925F45",
"7. c #97816B",
"8. c #85817D",
"9. c #8A827D",
"0. c #998779",
"q. c #A38A77",
"w. c #AB927C",
"e. c #A8937C",
"r. c #B69379",
"t. c #7C7D81",
"y. c #727B82",
"u. c #7D8185",
"i. c #838383",
"p. c #8A8682",
"a. c #8C8985",
"s. c #838689",
"d. c #85898C",
"f. c #8B8C8C",
"g. c #928E8A",
"h. c #968B83",
"j. c #93918D",
"k. c #9B918B",
"l. c #8B8E92",
"z. c #8E9295",
"x. c #8F9499",
"c. c #939495",
"v. c #9B9693",
"b. c #9A9995",
"n. c #939699",
"m. c #95999D",
"M. c #9C9C9C",
"N. c #949897",
"B. c #A89686",
"V. c #B39C86",
"C. c #A29E9B",
"Z. c #A49B94",
"A. c #9FA09D",
"S. c #B8A28D",
"D. c #A2A19E",
"F. c #ABA39B",
"G. c #B9A896",
"H. c #BBB09E",
"J. c #9A9EA2",
"K. c #969DA1",
"L. c #9DA2A5",
"P. c #9EA4A8",
"I. c #A3A4A4",
"U. c #A2A6A9",
"Y. c #A5AAAD",
"T. c #AAABAC",
"R. c #AAA8A4",
"E. c #B1ABA5",
"W. c #AAAEB1",
"Q. c #A7ACB0",
"!. c #ADB1B5",
"~. c #ADB4B8",
"^. c #B3B4B4",
"/. c #B3B6BA",
"(. c #BABBBC",
"). c #B6B8B8",
"_. c #B4B1AE",
"`. c #C3B19E",
"'. c #C0A592",
"]. c #C6BBAA",
"[. c #C6BAA9",
"{. c #C4BDB5",
"}. c #C3A7A4",
"|. c #BEC0BF",
" X c #CCC3B4",
".X c #C9C3BC",
"XX c #D1C8BA",
"oX c #BBBEC2",
"OX c #B5BBC1",
"+X c #BDC1C5",
"@X c #BDC4CA",
"#X c #BFC9CD",
"$X c #C2C3C4",
"%X c #C2C6CA",
"&X c #C5CACE",
"*X c #CACCCD",
"=X c #C9C7C6",
"-X c #D3CDC6",
";X c #D5D1CB",
":X c #C5CBD1",
">X c #CBCED2",
",X c #CDD1D5",
"<X c #D2D3D5",
"1X c #D4D6DA",
"2X c #D5D9DC",
"3X c #D9DBDE",
"4X c #DBD8D5",
"5X c #E1DCD8",
"6X c #E2E1DE",
"7X c #DBDEE1",
"8X c #E0DFE4",
"9X c #DEE1E4",
"0X c #E2E3E5",
"qX c #E6E8E7",
"wX c #E6E6E8",
"eX c #E7E9E9",
"rX c #EAEAEA",
"tX c #EAE9E7",
/* pixels */
"U ^ / 7.e.r.>.7.V.e.B.XXXX X XXX XG.;X6XXXG.G. X X X X X XXX X X`. X XG.0.k.7.k.h.B.E.4XtX0X5X;X.XZ.R g.q v.g A.S ! ! o 8 9.r b ",
"^ ( >.0.S.S.e.) A ( B.`.H.G.G.H.G.S.XX6XXX/ :.XXXX/ O.XX;X>.O.XX X>.7.`.7.j 0.V.0.Z.E.8X;XZ.p.3.R.h.[ g.q b.m D.m ! X.+ 0 9.0 m ",
"W O.1.0.S.G.V.<.j p 7.r.:.f z e.w.e.-X5X X) >.[.XX) :. X X<.:.H. X:.>.H.7.j 0.j.4.{.4X).B s s r Z.2.] Z.4 D.m v.S { { @ t 9.8 g ",
"W ^ 0.e.G.G.S.V.k p >.,.7.p ) r.'.G.-X5X Xj )  X Xl /  XXX/ ^ [.H.U / H.( z k.Z.h.{.-XR.4X{.C.5...p.R h.0 b.g R.S { X.# g *.0 M ",
"U ^ :.0.G.0.S.G.l l ,.6.q.l l r.`.[.5X6X4X^.=X9X6X5X5XqXtX6X6XqXqX4X5X6X-X-X-X.X).}.;X;XE.T.k.U 2.4.R +.8 R.m R.C +.[ # g 9.0 C ",
"j <.r.1.w.S.S.`.k p ,.,.7.k k V.<X0X0X7X2X2X1X,X9X<X#X+X|.+X&X&X<X*X2X3X9X9XeX9XqXqXrXeXrXrX4X<.h.Z.[ Z.q I.h R.C { T = m a.w S ",
"j ) q.S.G.G.e.`.l l ,.6.q.6.1.-X%X+X(./.*X%X,X#X(.,X3X2X2X,X<X2X1X&X&X<X,X:X2X,X3X<X2X1X2X2X1X1Xk.Z.[ C.t F.b C.m +.! = S a.4 H ",
"g D 1.7.V.G.e.4.w.q.V.'.B.G.=X*X1X,X1X2X3X2X2X2X7X9X7X9X9X9X9X0X9X9X9X9X7X2X:X:X%X1X3X*X,X2X1X9X<Xv.{ Z.r v.n T.m -.T = S a.4 H ",
"- U 1.V.B.G.e./ w.V.`.].S.;X1X7X2X9X9X9X9X9X9X9X9X0X0X9X9X0X0X0X0X0X0X9X0X0X0X0X9X0X0X0X0X0X0X0X7X=X{ k.a D.n E.m -.K ; X.j.0 m ",
"f d :.q.B.G.B.q.r.w.S.S._.>X1X7X7X9X9X9X9X9X9X9X9X9X0X0X0X0X0X0X0X0X0X0X0X0X0X9X0X0X0X0X0X9X0X7X0X9XM.j.a I.m T.m 8.H ; *.g.Y 8.",
"d - U w.B.B.0.0.9 p 0.G./.,X7X7X2X9X9X9X9X9X9X9X6X0X9X0X0X0X0X9X0X0X0X0X0X0X0X9X0X0X0X0X0X0X9X6X0X7X1Xf.g F.m C.a  .S ; p.C.g.p.",
"U 9 :.B.B.1.^ ~ p U 4._.J.7X7X7X9X9X9X9X9X7X9X9X0X9X0X0X0X0X0X0X9X0X0X0X0X0X0X0X0X0X0X0X0X9X0X0X0X0X9X_.h c.r M.^ ^ g > 8.k.g.9.",
"..d 5.B.V.V.O.h./ :.3.n.oX2X7X7X7X7X9X9X0X7X0X0X9X0X9X0X0X9X0X0X6X0X0X0X0X0X0X0X0X0X0X0X9X0X0X0X8X0X9X2X&.D.p.R.4.p.g > a.0.j.9.",
"5.W ..2.h.3.o.s.E.g.R.n.7X7X7X7X7X7X9X7X7X7X9X9X9X9X9X0X0X0X9X0X0X0X0X0X0X0X0X0X9X0X0X0X0X0X9X0X7X9X7X7X).Z.R.I.>.a.n 6 a.g.a.p.",
"j 4.rXrXrXrXg.L } R.s.%X1X7X7X1X7X7X7X7X7X7X9X7X9X9X0X9X0X8X0X0X0X0X0X0X0X0X0X6X0X0X0X0X7X7X0X3X9X7X8X8XQ.p.R.^.>.O.R b ;.j.j.b.",
"a A D s ` F X O @.C.%.7X1X1X7X7X7X9X7X7X7X9X7X7X7X9X0X,XoX).T.I.(.,X3X*X|.).1X0X0X9X4X9X0X8X0X9X9X0X9X7X!.;. .+ u 3.;.] Y..X|.|.",
"3 V ( q ` v + + 8.i.I.1X0X0X0X8X8X5X0X8X0XwX0X0X0XwXwXwX0XwXqXqX0X0XwXwX3X;X+X=X1X8XwX8XwXwXwX8XwX0X9X0X8X} 3.y   1 -.c.(.^.).(.",
"t ; Z c.L.P.m.v T.*X7X8X0X0X0XwX0XwX0X0X0XwXwXwXwXwXwXwXwXwXwX0XwXwXeXwXeXwXeXqXrXwXrXrXwXwXwXwXwXwXwXwXwX;XM.x & M @.U.(.(.{.(.",
"; 2 H eXrX;XD.a.=X0X0X8X0X0X0X0X0X0XwXwX0XwXwXwXwXwXwXwXwXwXqXwXqXqXqXqXwXwXwXwXwXwXwXwXwXwXwXwXeXwXwXwX0XwX8Xi.4.l.@.U.(.(.OX(.",
"# = 3 t x ! D.^.3X0X0X0X7X0X0X0XwXwX0X0XwX0XwXwXwXwXwXwXwXwXwXwXwXwXwXqXtXwXwXwXwXwXwXwXwXrXwXwXeXwXwXwXwXwXeX=Xk.i.} I.OX).).).",
"+ o ; 6   m ).^.0X0X0X0X0X9X0X0X0X0X0XwX0X0XwX0XwX0X0X0X0XqXqX4X{.9XwXwXwXwXwXwXwXwXwXwXwXwXwXwXwXwX0X0XwXwXwX0XM.9.} J.R.f._.!.",
"o . = o # a.=X).3X0X0X0X9X0X3X2X0X0X0X0XwX0XwXwXwX0XwX0XqXqX9X*X!.$XwXwXwXwXwXwXwXeXwXwXwXwXwXwXwX8X0XwXwXwXwX0XY.g. .n.t.O n._.",
"B   s O.4.b.;X=X7X9X8X9X0X0X9X,X<X7XwX0X0X0X0XwX0XwX0X0X9X0X9X+X&X*X9X0XwX8XwXwXwXwXwXwXwXwX8X8X0X0X0XwXwX0X0X8X(.v.9.f.;.@ c.E.",
"( 4.9.0.*.&.u y =.+X$X&X:X<X1XT.oX%X:X1X>X>X:X:X*X%X:X:X:X%X:X+Xm.&X,X&X>X&X>X>X,X1X7X7X8X8X8X7X2X7XwX8X8X7X8X=X^.f.Z.h.R O f.C.",
"v.v.v.2.*.P &.z.$.G I @.N.+X%XL.U.%XoX%X&X&X&X:X:X:X%X:X:X:X,X:X:X&X:X:X@X@X@X@XOXOXoXoXoXoX@X/.I.>X>X>X+XY.l._ c B [ Z.E 5 *.8.",
"3.3.3.X.] { H ' u.x.P.n.=.G d./.i.W.W.n.x.z.d.l.z.m.m.m.m.L.P.Y.W.W.~.!.~.~.!.Q.J.K.x.l.K.J.:X$XT.+XQ.] s a -.b.X...[ *.B.J {  .",
"*.3.&.J I P b ] | y.y.} } y.#.} l.n.~.t.F M N b v v v t y x y v } x b v b M F F H _ L _ | J.OX$X(.@.G | *.8._ _ } _ +.K <.V c n ",
"p.a.o.S H S S  .-.-.#.-.[ #.y.%.s.l.Q.s.x y u e 0 u y y x y y y I x x x x x x y u x x x F x.OX=X .@.@.} | L L } t.} H C ~ B n h ",
"p.a.] m M g j A H $.P P } g.#.%.| i.W.m.v i i y t y t y y x x y L y x x x x x x c c x c ' J.OX%.@.#.$.} @.L @.;.-.E a b t V P P ",
"9.9.J r g u t f s D L ] s.n.@.' #.@.n.W.;.N M y y x y u e w 5 6 M 6 6 6 6 w e e e c x c z./.n.G #.' t.l.| F ] _ -.U q c 0 m ~ ( ",
"*.3.C r g P y e t c M _ s.d.$.} y.%._ l.-.M t t y b x g x x x u H x x x y x x x c u u t.J.n.' y.F E @.z. .N c r a U u a 8 Z ( ( ",
"3.2.K m H ] s.s.s.;.P L H H L I | =.c.| u.I.U.n.s.;. .$._ b y u H y y x F L } _ @.t.d.U.t.2.| _ P L @.t.P b e 5 x ;.&.m 8 C X.O.",
"2.2.R a H  .n.Q.W./.OXOX@XOXP.x.d.x.:X@X$.N N L | u.u.t.s.f.N.L.J.c.n.c.l.i.t.t.=.' H b d.:X=.} } | @.=.u.m.Q.oX@X%Xc.] s D ( O.",
"+.&.K 8 e c _ =.d.z.n.K.J.U.W.Q.W.OX+X:X:X#X#X/.Y.J.f.l.c.u.| ' ] | =.l.l.c.M.J.U.W.OX@X#X#X@X@X+XOX+X/.!.!.L.J.M.m.{ C 7 D ( ..",
"o.o.T 4 : 5 u b F L } =.t.d.s.z.J.P.m.U.OX:X:X~./.W./.oX/.+X:X:X&X@XoXoXoX@XoXoX@X#X&X@XK.U.K.n.m.L.J.K.z.u.-.=. .E T q 0 J o.^ ",
"o.O.J 3 : 6 5 r u c c b F N H _ | | @.| t.m.z.# 6 6 % 5 6 < % % % < 1 6 x 2 i e t @.U.z.u.s.t.t.@.| _ I H M b x u 8 t 4 ; r b R ",
"E ! T > = 1 2 5 8 w i e r x y b b N M H M H H   % 1 % 6 u 2 & & O + $ u w 1 + w - c ] M m P H H C F M N N c a u e > ; > 3 g t 5 ",
"J J J 4 * * $ = = # $ < 6 6 5 e e u u x v y u % < + + < < + + + % - % 5 < + $ f 9 : * = 4 4 t r u u r 8 5 w 6 4 4 7 > ; 4 h g 7 ",
"J J B 7 # % # $ @ . . .   O + % < 1 2 2 2 2 < % < % % 1 + + + + 8 1 * q s Z s f * = : > 4 > 0 * 8 - , * @ @ # $ > ; # = 4 t t a ",
"D B n 8 # # $ = e + . . . .   + 2 2 &   & &     & & & &   $ @ # B 3 a Z E U f O * o @ * * > q @ 7 = 3 s C B M ! ! s # ; 0 m g g ",
"n a a 4 # + @ # = u e 6 1 + + w i r $ .       . . . .   o # $ r 4 * q 8 g S D q - @ # , j 9 9 z 7 , 8 q h g s P *.7 ; * 0 t g a ",
"y r 0 # + + + + + @ + 1 5 i e F H N v x b t u 5 #       + @ 8 a = ; : ; @ o 7 D - @ * @ > k U ) 9 > D B o.o.*.C *.! # ; : 3 > ; ",
"s r 5 ; o       X X X X & O O & + 1 1 < < < 1 w x b x ] f.k.o.X.= + @ # @ @ * = 7 > @ ; @ * q q , 7 g *.D.(.C.C *.o.o + * = ; 4 ",
"g a t r 4 * @ o       O $ 1 1 2 1 < & $ < $ < < 5 M M.=X)._.D.{ ;.s.J.o.e r a H m * ; > 7 D j h 7 8 > g ).j.g.3.{ !     o @ @ # ",
"V V h h a t r q 8 7 5 5 3 ; 1 ; 6 # @ @ @ + + & | R.(._.^.).(.+X+X{.oX(.^.R._.T.D.s.i.R.8.O.V g 0 g g > a s.a.p.8.] O @ # @ * # ",
"D D Z Z V V V n B n m n n b n n n n b g g g a a -.A.M.D.a.j.M.T.W.~.!.W.Y.Q.Y.!.!.!.!.I.v.b.j.v.j.b.j.; 1 h.k.3.[ [ 1 * * # * = ",
"Z J D Z D D J D J J Y J J J J J J J Y J J J K K j.A.D.M.f.b.W.W.~./.W.W.L.Y.Y.W.^.!.W.T.I.A.A.A.L.A.g.@ O i.p.o.o.E 4 9 4 1 - 1 ",
"Z Z D D Y Y J Y Y T R Y Y R T T T R R E E R R P a.T.M.I.R.W.!.!.W././.W.W.W.!.!.W.!.!.W.I.I.I.A.L.A.j.o 1 9.o.2.E [ s s s q e f ",
"Z J J J Y Y J T T R E E E E ~ ~ [ [ E ] E [ E ] *.M.v.M.T.!.!.!.!.~.!.~.!.!.~.Q.!.!.!.Y.U.I.I.I.A.U.N.o * O.*.3.-...V V B A n a ",
"Z J Z Y J Y R R E E ~ [ [ [ ....[ [ ....X...[ ..v.M.M.b.I.Y.~.!.!.!.^.W.Q.Q.W.Q.Q.!.!.Y.U.I.I.U.R.T.a.# ; *.*.3.8.! j h h a a s ",
"Z Z Y Y J T T T T E ~ ..[ [ [ [ ....~ E ..[ ....g.C.C.M.I.W.!.!.W.U.!.!.!.Q.W.W.U.!.Y.Y.T.Y.U.I.U.I.8.> S 2.2.2.p.J h h c c d c ",
"Y Y Y Y T T P E [ E ~ E ..[ ....~ ..X.X.X.....[ 3.i.c.M.Y.Q.Y.Y.T.W.!.W.!.Q.Q.!.Y.U.Y.Y.P.Y.Y.Y.P.Y.f.t V 2.2.2.g.J V B j c a s ",
"D Z Y Y J T R R ! ~ ~ ~ [ ] [ X. .....o.X.+.X.X.$.-.c.I.Y.!.Q.W.W.!.Y.W.Y.Y.W.W.!.W.Q.!.Q.Q.Y.U.Y.L.f.r g *.+.9.9.Y Z c A c A c ",
"J Y Y Y J R R R R E R ! E [ { [ { .... .X.o.X.X.f.b.m.U.Y.Y.W.Q.W.Y.Y.Y.Y.Y.Y.W.!.U.Y.U.Y.Y.Y.U.Y.U.f.0 ~ 2.+.-.2.Y Z Z A c A c ",
"Z J J T J K T R R ! ! ~ ~ ! E E [ [ [ ..X.X.X.o._.U.U.U.Y.Y.Y.Y.Y.Y.Y.U.Y.U.Y.Y.Y.U.U.Y.Y.Y.L.U.I.L.s.g *.&.+.a.[ Z Z Z Z D A c ",
"Z D D J K J J J K T R E E E [ E E [ [ ....o.X.X.f.z.L.U.U.U.Y.U.Y.P.I.U.P.P.Y.U.P.P.U.U.U.P.L.c.L.A.i.! *.o.8.+.T Z Z Z A A c A ",
"Z D D D D J D R T Y T T E E E E E ..~ X.o.o.X.o.l.J.U.P.J.U.U.U.P.U.L.P.P.P.I.U.U.L.U.L.P.P.J.m.J.J.i.&.&.3.3.R Y c A B V c B c ",
"Z Z Z Z Z Y Y Y T R E R T E E E ! ! [ ( ~ [ { X.t.z.P.P.J.U.U.U.P.P.L.L.L.P.U.P.P.L.L.J.L.P.K.n.K.n.3.*.&.*.! J U c c A B B A B ",
"Z D D D D D S D Y J K J J Y T T T ! ~ ~ ! T E ~ n.m.J.J.J.J.L.J.L.P.L.L.K.L.L.J.L.K.K.m.m.L.m.m.m.n.*.+.p.{ P Z c c D A n m B n ",
"V m C Z Z Z C S J S J H Y J J Y ! T K K T K P ! n.m.J.K.J.J.K.J.m.m.L.m.K.K.f.K.m.m.x.n.d.x.N.N.n.x.;.o.X.P Z a c A c c a n a c ",
"n n V V C C S S S S H S H Z J H K J S S J J J K f.n.n.m.K.J.m.n.m.N.n.x.N.m.x.x.x.u.l.z.z.z.n.z.z.n. .[ R J a 7 8 s t t s a a s ",
"n g n M C m m C S Z S S Z S J S S S J S S S M C ;.n.x.z.m.W.Y.OX/.n.z.l.z.z.x.m.z.z.l.d.l.z.l.d.d.l.[ E J n   + # 1 1 7 i e r u ",
"a g g n m m m m m m g Z C C S S S S S V S M m n @.l.z.l.z.l./.l.U.T.d.l.d.l.l.d.d.d.u.l.l.l.l.z.l.s.] P C @ O O @ # * 1 6 4 8 e ",
"g a g g g n n C m m V n M m m m m S M C m n n b ] s.l.l.l.l.oX-.m.T.t.d.d.d.d.s.u.d.u.u.d.d.d.z.s.s.E J q X @ = # = = = 2 6 4 4 "
};
