/* XPM */
static char *image_31738162759[] = {
/* columns rows colors chars-per-pixel */
"64 64 242 2 ",
"   c #1C1D19",
".  c #1B1B17",
"X  c #221E1B",
"o  c #1E221C",
"O  c #23231D",
"+  c #25291E",
"@  c #29281E",
"#  c #201E21",
"$  c #242421",
"%  c #2A2622",
"&  c #262922",
"*  c #2B2B24",
"=  c #2D2D29",
"-  c #332C23",
";  c #352D28",
":  c #2C3125",
">  c #2F342A",
",  c #323325",
"<  c #33332B",
"1  c #3C342B",
"2  c #333A2C",
"3  c #3B3B2C",
"4  c #3B3426",
"5  c #3B3B34",
"6  c #3A3B3B",
"7  c #363735",
"8  c #3E2D33",
"9  c #1E1E20",
"0  c #42362B",
"q  c #443A2D",
"w  c #493B2C",
"e  c #443C33",
"r  c #483D37",
"t  c #52322F",
"y  c #6A3233",
"u  c #4F1C1E",
"i  c #3C4334",
"p  c #3E423C",
"a  c #3F412C",
"s  c #46422E",
"d  c #54432D",
"f  c #4D4233",
"g  c #43443D",
"h  c #4C433B",
"j  c #46493C",
"k  c #474737",
"l  c #544533",
"z  c #544934",
"x  c #5C4B35",
"c  c #5C4D39",
"v  c #564738",
"b  c #5A523A",
"n  c #4D5136",
"m  c #624C36",
"M  c #624E3A",
"N  c #694F38",
"B  c #64523B",
"V  c #6B553D",
"C  c #6C593E",
"Z  c #605037",
"A  c #70583E",
"S  c #3D3D42",
"D  c #473D42",
"F  c #753E41",
"G  c #3F4044",
"H  c #444443",
"J  c #4B4C43",
"K  c #4C4C4B",
"L  c #454847",
"P  c #554C43",
"I  c #594E45",
"U  c #524D4B",
"Y  c #544A45",
"T  c #4C5248",
"R  c #5B5146",
"E  c #53534C",
"W  c #5C544B",
"Q  c #575949",
"!  c #4C4D51",
"~  c #4D5355",
"^  c #545454",
"/  c #5B5552",
"(  c #545B53",
")  c #5A5B5A",
"_  c #575959",
"`  c #6C5A42",
"'  c #645847",
"]  c #735C43",
"[  c #735C49",
"{  c #655C53",
"}  c #645B57",
"|  c #724C4E",
" . c #5B635A",
".. c #6D634C",
"X. c #746145",
"o. c #7A6345",
"O. c #75634B",
"+. c #7B654B",
"@. c #7D694D",
"#. c #72684F",
"$. c #6A6255",
"%. c #6B645B",
"&. c #66665A",
"*. c #7C6B53",
"=. c #7D6D5A",
"-. c #756857",
";. c #7E705D",
":. c #595D63",
">. c #5A6466",
",. c #5D6A70",
"<. c #6D6A63",
"1. c #676868",
"2. c #736C64",
"3. c #736E69",
"4. c #766667",
"5. c #75716B",
"6. c #7A746C",
"7. c #7C7366",
"8. c #676D72",
"9. c #6B7476",
"0. c #7D7A74",
"q. c #7B7C7B",
"w. c #767877",
"e. c #696F6D",
"r. c #6E5962",
"t. c #853232",
"y. c #894E4F",
"u. c #816B4D",
"i. c #836D53",
"p. c #826E58",
"a. c #84725C",
"s. c #8A755D",
"d. c #867155",
"f. c #857463",
"g. c #8B7964",
"h. c #857A6B",
"j. c #8B7C6B",
"k. c #867766",
"l. c #917D67",
"z. c #847D74",
"x. c #8A7E72",
"c. c #837E79",
"v. c #877877",
"b. c #956C6E",
"n. c #B27B7E",
"m. c #C07E7F",
"M. c #77827D",
"N. c #8C8175",
"B. c #85827B",
"V. c #8C847C",
"C. c #89857A",
"Z. c #90867D",
"A. c #928A7F",
"S. c #918373",
"D. c #92816D",
"F. c #797D81",
"G. c #827F86",
"H. c #7B8283",
"J. c #7C8689",
"K. c #7F9091",
"L. c #848483",
"P. c #8A8681",
"I. c #8D8A83",
"U. c #838B8C",
"Y. c #878989",
"T. c #948B83",
"R. c #938C86",
"E. c #94918C",
"W. c #999289",
"Q. c #878E91",
"!. c #8A9394",
"~. c #8A9598",
"^. c #9D9B95",
"/. c #979998",
"(. c #86908F",
"). c #B88789",
"_. c #A19D99",
"`. c #BF9599",
"'. c #A4A19C",
"]. c #A9A69F",
"[. c #959DA2",
"{. c #8C9BA2",
"}. c #9AA3A8",
"|. c #9DABB3",
" X c #ADAAA5",
".X c #A7A7A7",
"XX c #B1AEA9",
"oX c #B1ADA6",
"OX c #B5B2AC",
"+X c #B8B4AE",
"@X c #BBB3A5",
"#X c #A5ADB5",
"$X c #A7B2BB",
"%X c #B8B6B4",
"&X c #9EA09D",
"*X c #C6979A",
"=X c #C69DA1",
"-X c #AABAC9",
";X c #B5BDC5",
":X c #ABBDD4",
">X c #B0BFD2",
",X c #B7C3CC",
"<X c #AFC0D5",
"1X c #B3C3D4",
"2X c #BCCBDB",
"3X c #B9C7D7",
"4X c #B6C8D4",
"5X c #BFD0E0",
"6X c #C3CEDB",
"7X c #C3CDD6",
"8X c #C5D1DC",
"9X c #CAD3DD",
"0X c #CFD8DF",
"qX c #D1D6DD",
"wX c #D4D9DE",
"eX c #C5C8CE",
"rX c #C4D3E2",
"tX c #CBD6E3",
"yX c #CDD9E5",
"uX c #CCDAE8",
"iX c #D3DBE4",
"pX c #D3DEE9",
"aX c #D7DCE6",
"sX c #D6E1EC",
"dX c #DBE3EC",
"fX c #DDE2E8",
"gX c #DDE6F1",
"hX c #DFE9F3",
"jX c #D6E3F2",
"kX c #E2E6ED",
"lX c #E5E9EE",
"zX c #E3EBF4",
"xX c #EAEEF5",
"cX c #E6EEF8",
"vX c #E9EFF9",
"bX c #E1E7F1",
"nX c #ECF1F6",
"mX c #ECF3FB",
"MX c #E6F0F9",
"NX c #F2F6FB",
"BX c #F5F9FD",
"VX c #F7F8FB",
/* pixels */
"mXmXNXBXmXcXhXF.eXNXVXVXVXNXNXvXcXjXbXcXcXNXBXcXhXzXhXgXjXsXpXuXpXuXpXuXuXrX2X2X3X<X<X:X<X2X2X6X2X2X2X5X5X2X2X3X5XtX6X3X3X<X:X:X",
"MXNXBXBXmXcXhXU.eXmXNXNXmXvXvXcXcXbXhXcXcXcXNXNXvXvXcXzXgXpXjXpXuXuXtXpXpXtXuXrXrXtXuXuXuXrX6XtXtXtXuXuXtXaXaXtX6X2X3X>X<X:X:X:X",
"MXBXBXBXVXBXmXG.;XmXNXvXmXmXVXBXvXvXcXcXcXvXvXcXbXgXhXcXgXgXbXbXsXdXbXbXgXaXpXpXaXaXaXaXuXuXtXiXaXaXaXrXrXtXtXtX3X3X5XtX6X3X3X3X",
"mXmXmXmXNXVXNXY.;XVXVXmXcXvXvXNXvXcXcXcXzXvXcXbXgXjXjXhXzXgXzXxXvXvXxXbXdXaXpXuXaXlXlXxXvXzXbXkXbXaXrX2X3X<X<X<X<X3X6X9X6XtXqXqX",
"BXBXBXNXmXBXnXQ.$XNXmXmXcXcXhXhXcXbXcXcXnXnXNXxXvXzXzXzXzXzXxXxXxXbXbXbXaXtXiXpXsXkXaXsXaXaXaXyXaXaXaXtX2X>X<X:X:X:X3X3X6X6XqXqX",
"BXmXBXBXBXBXVX/..XNXmXvXmXzXjXhXgXzXcXvXnXnXxXnXvXgXsXbXzXbXbXxXbXbXdXaXpXuXiXaXdXlXlXaXaXyXtXrXrXrXtXtXtXtX2X<X:X:X>X>X3X>X3X3X",
"mXmXMXMXBXmXmX}./.NXNXNXvXbXjXhXgXjXjXhXzXcXnXzXbXzXzXgXgXbXxXbXbXbXgXpXtXiXuXaXfXlXkXkXbXlXsXaXtXtXtX6XtX9X6X3X3X:X:X3X>X>X>X>X",
"MXhXMXhXcXhXMX[.Q.bXvXNXmXvXcXvXzXcXcXzXzXzXzXzXzXzXzXsXsXlXnXbXaXaXaXtX>XtXtXaXaXaXaXaXkXfXfXaXaXtXtXtX6XrX6X2X3X1XeX>X>X:X:X>X",
"nXNXvXmXnXnXvX[.G.vXxXvXvXvXvXNXVXVXxXxXxXxXzXzXgXhXhXdXdXgXaXpXyX;X|.8XJ.-X$X8X8XtXiXiXaXaXpXaXiXyX0X9X0X0X0X0X3X3X:X:X-X>X>X~.",
"NXnXnXnXnXnXnX}.G.xXnXnXxXbXzXvXnXnXxXnXxXxXbXzXgXhXdXsXsXpXuXpXpX}.!.J.8.:.:.}./.3XrXrXrX6XrXrXtX0X0XsXiXiX0X0X6X>X:X-X{.>X,Xq.",
"vXnXnXxXnXnXvX.XG.xXxXxXmXxXxXxXnXnXzXbXlXxXxXlXgXdXsXdXpXyXyX6X3Xq.~ _ ! L S :.3.#XtXtXiXpXiXqXyX0X0X0X0X0XwXwXqXeX#XQ.J.;XU.M.",
"xXxXzXzXvXxXxX.Xw.bXxXxXvXbXdXdXdXgXbXxXlXlXlXfXdXdXdXaXyX,X>X~.[.8.L D S S ! ~ 1.;XiXqXwXwXaXaX0XiX0X0X0X0X2X;X3X$Xr.F.&.U.H.q.",
"bXzXbXxXzXxXzX.Xe.lXnXxXxXxXbXbXdXgXhXlXdXkXlXfXsXfXsXsXsX.XH.q.Y.K S 7 7 S S S w.F./.;XaXwXiXqXwXiXqXqX0X0X7X&X;X|. . .E  .T T ",
"kXgXdXbXgXgXdX#X1.fXbXzXlXbXbXaXdXdXsXsXdXkXkXsXsXfXfXkXsX%XL.~ L G S 7 S 7 S S ^ ^ q.qXwXqXqXwXqXqXqXqX8X7X4X|.K.M.T ( T T i i ",
"sXsXsXdXaXpXaX#X1.6XdXdXsXsXaXbXfXfXaXpXdXdXfXqXfXaXXXwXaX7X(.,.S 6 7 S 7 S 7 L D :.-X8X9X6X8X8X6X6X7X7X|.M.~.K.M.n i L L i T i ",
"sXpXaXsXuXpXaX;X:.eXsXpXpXpXuXpXpXaXsXfXfXsXaX%XeX#X XqX8X[.( H ! ! D S S S S ! L F.-X3X7X7X7X3X3X;X!.|.$X .e.M. .i L i i > i > ",
"pXuXuXuXrX9X8X$X:.$XuXuXuXrXrXrXuXuXyXyXyX9XrX{.M.0.%X~.(.J.( J G S 7 S L ! S S S }.-X1X1X4X4X|.U.H.) >.H._ T ( 9. .2 i 7 2 > > ",
"pXyXyX2X5X-X{.J.~ q.;XrX5XrXrXrXrX5X5X,X4X2X|.M. .>.M.e.( T J J ! ! S S ~ :.S 7 ! ) K.<X<X<X{.e.K T T T ( j L T ( n i i i > & = ",
"0XyX9X$X|.#XJ.1.! 8.-X[.1X6X5X5X5X5X5X|.M.}. .Q Q ( E  . .j T g L ~ S ! ! ! D S 6 L {.,X,X|.) J L g p H p p g i i i i > > : & 9 ",
"yX0X#X#X[.J.9.( L 1.H./.4X6X2X8X5X5X$X(.K.&. .Q Q J j j k n k j j j G ,.! :.F.~ 7 S ) #X~.>._ U g 6 2 6 K ) j i i > 2 2 > : & & ",
"0X0X}.J.!.J.e.T L ^ 8.4X9.M.|.5X5X2X|.w. .Q T Q Y J j E g g j j J j 5 7 7 D ~ S S 5 :.-X>.U E / / W / } 4.r.j i i i 2 > > : & o ",
"9X0X,X#X(.H.1.T S L w.U. . .8.|.-X$XH.1.2.M.C.I.R.G.P.L.0.e.&.( T ( S ! ! 7 S ~ ,.L } L./ / E / ^ / r.4./ r j i 2 > > : > : & : ",
",X|.|.~. .1.T T G p p T L L >.,.9.J.!./.Q.q.M.Y.x.W.!.&XOX+X%XXX X_.L.G.8.:.^ H 5 J I U U K U ^ ) 4.r.r 0 D r < > > & : & & o o ",
"9.,.,.>.~ L K ^ G 6 p p p p ~ 9.J.!.Q.U.F.1.).*X*XA.U.(.!.%XXX+XOX!.F.U.F.U.Q.F.w.r.Y K U K U / / } U 8 D | 5 2 i > & & & o & : ",
",.>.~ ~ L p E E L 5 7 7 p L F.(.~.K.K.K.:.b.=X*X*XG.G.F.w.!. X+X%XXXY.Y.!.~.Q.Q.~./.~.w.) E W / 1.L.<.h I j i 2 > : : o o o & o ",
"~ >.>.~ L L  .{ H 5 7 6 ( 9.9.(.~.K.K.e._ n.`.m.).G.H.q.9.H. XoX+X%X XR.U.Q.[.~.~.[.}.}./.w./ / } E..XI.r.P 3 3 > > : + & o o o ",
"J T ~ T E P J J 6 7 6 ! w.~ ,.9.H.H.M.! 4.).).).b.8.9.9.9.w.E. XXX+X+XOXY.F.K.U.K.!.~.[.}.}.!._.@X@X'.W.P s 3 , : : : i & o & o ",
"i i p p j J W } / ^ 1.G p e.9.,.>.>.:.L 3.v.G.v.5.8.,.1.8.9.q.oX XXX+X%XXX!.9.H.U.U.K.Q.~./.~.}._.W.^.^.C.&.T , i : + + & o o o ",
"> 7 2 6 <.5.L././.^.^.3.e.E.^..X/.&X^.'..X.X'.^.^.E.Y.L.Y.Y.Y.OXXXXXXX+X+XXX].Y.U.!.K.J.K.U.(.(.!.U.L.7.-.T i 2 : : o : & o o o ",
"> = 6 L.q.B.c.0.0.B.c.z.B.B.P.B.M.(.^.'.'.'. X X XXX X_..XXX+XXX@XOXOX+X+X+X+X+XXX.X.X'._.}./././.E.!.M.%.E k i a > : i & o . . ",
"> > ^ 3./ 6.3.<.&.<.<.<.2.3.5.0.7.0.B.B.P.I.E.E./.^.L.E.R.'._._._.oXoXXX+X+X+XOXOXOXXXXXXX X X.X.X.X.X^./.R.c.&.T 2 & : > + o   ",
"L 2 / 5 * E 1.{ { } { { } %.%.%.%.<.<.3.3.5.6.0.v.c.B.I.E.E.E.E._.]. X XoXXX+XOX+X+X+X+XOXXXXX X XE.L.B.w.6.e.1.e.&. .( p & o . ",
"h g 6 # # = / W W ' { / W { { } { { %.%.%.2.3.3.3.5.6.0.0.q.B.P.R.R.E.^.^._.'.]. XXXoXXXXXXX X'.b.| r / E Y K L j K g H H H   O ",
"` ' ; 9 # $ Y / &.<.%.%.%.&.$.} { { { $.{ $.$.%.<.<.3.3.0.L.R.E.E.Y.I.I.I.E.E.E.W.E.E.W.^._.n.y.t.y u r K L H g 6 r g 6 5 5     ",
"#.{ 5 9 # ; h W W I { } %.4.7.5.3.3.2.%.<.%.%.{ $.%.2.5.z.C.^..X_.E.I.C.P.C.C.B.R.P.x.G.v.y.y.b.F I y e r 6 ; % = * % < 5 7 $ O ",
"O.O.r $ # < 5 I U I I I R E W / { %.5.3.6.z.6.7.2.<.2./ 5 < r 6.].^.R.B.B.B.z.B.c.c.v.f.y.b.b.F F y y t 5 5 5 5 5 7 7 H g 1 % O ",
"..Q k * > 5 % J Y I I I I I I R I W ' { { { %.4.0.5.W * % % % ; 2.E.I.c.z.0.z.0.6.6.| y t.t.t.y y y t t ; 7 5 L H g j K 5 ; , @ ",
"Q k i e b v ; e e 5 r J I W R I v Y I Y W ' ' { ' R * $ $ % # % ; <.P.c.B.B.B.z.v.w.4.-.y.y.y y y u u u ; ; 5 K Y K J ! 8 ; , * ",
"Q b C B ` B B B c f 1 ; 1 e h I R R Y I I I I I I h # $ # $ $ $ % 6 2.3.6.6.q.C.R.E.E.^._.W./.I.w.r./ U H r D H H H r H E J 3 , ",
"O.X.' b z f l r 0 t ; # X * - 8 e e r I { { ' W I r # $ $ % = O O $ R } 1.} %.2.3.6.6.6.c.v.P.C.v.w.w.3.3.1.) ) _ ) _ _ _ ^ 3 , ",
"b b n i a f 3 4 1 - ; @ X X X X % % - 1 0 r Y { } g 9 $ $ * & & O $ e W { { { { { { } $.} 4.3.7.1./ U &.} _ U K L r 6 < = % = + ",
"b n n s s i P k 3 , 3 , ; @ @ X % . . X % - 8 0 r ; X # * * % + % & = R ' I I I R R W ' ' R I W Y r e q < = = = * % $ O O O + O ",
"C b C B C ' B ` C x z w f w 0 ; ; # X X % h < % - * O O * $ $ @ % X X Y I I Y h h v r r h f r t w 1 - - % $ O X X     . o + O + ",
"o.X.X.O.O.` ] X.V B z f x x x v w e 0 0 e e - % O   O O > * : * + O * h I I I v Y Y v t q 0 0 0 0 - @ @ X X             + + + + ",
"d.u.u.u.o.u.o.o.A V x c B B C N c l x m N z r e 1 - O X @ , * + % , - , e r q r M r 0 0 0 1 0 - 1 ; - 1 % % % = , < * O O @ + + ",
"s.d.d.d.d.i.u.+.o.] ] o.] ] o.o.` ` ] N N m N m x 0 - - 4 1 , * , , h w 0 0 1 M x - - 4 w 0 0 0 0 ; 1 e ; - & $ % . . O : : , : ",
"a.a.a.s.s.s.d.u.d.d.u.o.] ] o.A ] ] V m m N x m Z d d x s w s e 0 s l f 0 0 d x 0 X % - l w 0 - - @ 1 0 . - O O % O @ . + , @ , ",
"h.D.D.g.l.s.s.s.d.d.d.u.u.+.o.u.o.o.C C C A ` N x f l B z v l z l c l c d d c w 4 w r w 0 w m 0 @ 0 r 0 q 1 4 - * 4 4 : : + , , ",
"V.x.j.g.s.a.d.g.l.g.s.g.s.d.d.i.o.o.A o.o.o.C C z z c C ' B C z f x B V ` B B w x B x d 0 w l l t m c l r l v f 3 1 1 3 - 4 s a ",
"N.k.g.k.s.k.l.D.a.s.k.a.a.a.a.d.s.i.i.u.u.] ` ] *.*.A V m C ` C B B V O.o.O.] l f m B s 0 m w x A o.` M B c c c 3 w s f s s n s ",
"I.T.C.D.C.S.D.g.g.k.N.N.Z.S.g.a.g.l.g.s.d.i.i.+.i.p.@.@.+...o.o.o.X.+.u.i.u.] l d v Z d x x l l B C X.V ] B B c f l c b n z ' B ",
"C.V.x.B.Z.A.V.I.V.N.B.A.T.S.S.j.7.S.h.j.l.i.o.` ..O.@.*.O.#.+.o.o.+.u.o.u.o.] N c B m m m t z c B X.C C C ` ` ` b b ` b b b C ' ",
"I.C.B.V.C.Z.V.I.C.C.N.A.A.g.7.A.A.Z.V.j.h.f.-.-.*.-.h.V.k.7.-.[ ] +.+.@.u.] A ] ] N B B M t M c m ] C B A A A B B C B b b z ` ..",
"7.B.N.B.I.B.C.A.C.#.' #.#.#.;.A.A.V.V.V.j.x.v.x.z.N.C.N.x.v.6.=.#.+.d.+.[ ] ] A ] V m N N m N [ V X.Z m B C N m B C B C m ` C C ",
"0.c.c.x.Z.R.T.N.;.#.-.$.$.7.C.C.Z.A.Z.j.f.g.a.j.k.z.V.N.h.g.k.k.f.p.i.O.` ` A ] [ [ O.B [ ] C [ X.C Z x c x m x Z m C B ` ` B m ",
"B.C.A.I.I.C.A.h.&.' ' *.C.h.N.g.j.Z.Z.S.f.f.a.s.*.a.g.g.f.j.j.D.j.g.a.@.+.*.] +.@.@.i.i.u.u.] O.o.C m m x B x x x m Z Z Z B m x ",
"B.B.V.Z.A.A.T.A.6.&.2.N.N.k.=.f.j.V.Z.x.x.S.j.j.g.f.a.g.x.x.j.g.l.d.i.p.O.[ a.O.u.u.p.p.p.d.u.@.] ] m x c V x B Z x m m x c d d ",
"B.P.C.I.A.W.W.T.C.A.T.C.C.C.N.C.Z.x.x.j.j.j.x.x.j.j.j.j.x.A.x.l.k.f.l.g.a.p.i.O.u.i.i.+.u.i.i.@.[ ] V m B ` V V A m C x x d d d ",
"B.B.P.I.P.P.R.T.A.W.T.W.W.A.R.C.v.x.h.S.h.l.f.f.f.p.j.j.S.S.j.k.k.x.c.x.f.p.i.i.f.p.d.p.u.+.O.*.+.[ [ ` C V ` B N m m d t x l d ",
"B.B.B.B.C.B.C.0.N.N.C.A.T.T.T.T.R.V.x.j.k.k.f.h.x.V.V.x.v.h.j.x.v.j.x.k.g.d.f.a.a.g.a.a.p.y.*.O.p.i.+.#.` N ` B V c x f s z B B ",
"c.B.B.N.B.0.#.$.$.-.-.=.f.z.I.T.R.E.R.Z.V.x.V.Z.R.T.T.T.A.T.A.x.x.x.g.f.g.f.l.j.f.p.a.a.a.O.a.k.f.f.;.a.#.@.*.@.O.O.` ' B B B ' ",
"L.V.I.C.B.$.Q R $.{ -.f.7.h.C.v.v.I.T.Z.T.R.Z.T.R.R.T.T.T.x.Z.Z.T.x.j.f.=.f.g.a.=.*.p.g.a.a.a.=.a.f.h.a.=.*.;.=.*.*.i.k.i.` n z ",
"B.P.B.B.z.7.-.;.-.0.c.6.c.P.V.V.I.h.7.3.6.N.A.W.W.W.T.W.T.A.T.x.j.l.h.f.x.k.k.a.=.+.=.a.=.p.a.a.f.p.a.i.O.@.*.O.*.*.#.u.a.*.*.{ ",
"B.B.B.B.B.B.q.0.5.0.C.c.6.N.V.T.P.C.z.7.' $.4.v.x.x.Z.T.W.T.T.T.Z.Z.N.Z.j.f.p.a.=.+.*.i.+.-.[ -.=.f.7.=.=.+.*.7.h.*.O.X.@.i.k.g."
};
