/* XPM */
static char *image_51738162759[] = {
/* columns rows colors chars-per-pixel */
"64 64 243 2 ",
"   c #15120E",
".  c #1B1B1C",
"X  c #171716",
"o  c #130E0F",
"O  c #231B18",
"+  c #371718",
"@  c #28221E",
"#  c #35241C",
"$  c #1D1E21",
"%  c #1E2322",
"&  c #232424",
"*  c #25262A",
"=  c #2B2B2D",
"-  c #292828",
";  c #352C26",
":  c #34322D",
">  c #3C322B",
",  c #2B2E31",
"<  c #272A31",
"1  c #2E3134",
"2  c #2F3639",
"3  c #333335",
"4  c #3C3A36",
"5  c #33353A",
"6  c #353A3C",
"7  c #3B3B3B",
"8  c #3A3535",
"9  c #2E302E",
"0  c #221E21",
"q  c #452D24",
"w  c #46352A",
"e  c #573A28",
"r  c #453C38",
"t  c #563F31",
"y  c #532821",
"u  c #3E413D",
"i  c #44423D",
"p  c #4B4339",
"a  c #584538",
"s  c #5B412C",
"d  c #68442D",
"f  c #674936",
"g  c #734B35",
"h  c #6B533B",
"j  c #7B5439",
"k  c #76492E",
"l  c #3B3E42",
"z  c #363B42",
"x  c #413F41",
"c  c #3D4246",
"v  c #434343",
"b  c #43464B",
"n  c #4B4C4C",
"m  c #4A4947",
"M  c #544D45",
"N  c #534D49",
"B  c #54524D",
"V  c #5C544B",
"C  c #595246",
"Z  c #484C52",
"A  c #4D5357",
"S  c #535354",
"D  c #5C5C5B",
"F  c #575758",
"G  c #64564B",
"H  c #775C44",
"J  c #645B53",
"K  c #675D56",
"L  c #644F45",
"P  c #5F605B",
"I  c #64625D",
"U  c #6B645B",
"Y  c #6B6357",
"T  c #75665A",
"R  c #7D614C",
"E  c #5C5E62",
"W  c #565B65",
"Q  c #535A6E",
"!  c #5E6266",
"~  c #5D6570",
"^  c #646463",
"/  c #6C6A64",
"(  c #63666A",
")  c #6B6C6C",
"_  c #676867",
"`  c #746B64",
"'  c #756D68",
"]  c #6E706D",
"[  c #7A726B",
"{  c #76716A",
"}  c #696D73",
"|  c #6C7277",
" . c #747473",
".. c #74767A",
"X. c #767A7D",
"o. c #7B7C7B",
"O. c #7B7874",
"+. c #736F70",
"@. c #875939",
"#. c #885536",
"$. c #92633D",
"%. c #875C41",
"&. c #965D40",
"*. c #896545",
"=. c #966745",
"-. c #89725A",
";. c #987756",
":. c #8D6D51",
">. c #A37551",
",. c #887667",
"<. c #967A64",
"1. c #837D7A",
"2. c #837A74",
"3. c #A07F61",
"4. c #7E807D",
"5. c #AE855B",
"6. c #84817D",
"7. c #8A827C",
"8. c #988678",
"9. c #9C826A",
"0. c #A98765",
"q. c #A58B79",
"w. c #B99879",
"e. c #B6906D",
"r. c #C49C79",
"t. c #C5946B",
"y. c #C9A27C",
"u. c #D6A57C",
"i. c #7C7E81",
"p. c #777E84",
"a. c #6F7784",
"s. c #7D8286",
"d. c #788192",
"f. c #838484",
"g. c #8C8984",
"h. c #83858A",
"j. c #8B8C8B",
"k. c #878888",
"l. c #938C88",
"z. c #94918D",
"x. c #9B948E",
"c. c #8B8D92",
"v. c #848A92",
"b. c #8E9294",
"n. c #8D939A",
"m. c #949494",
"M. c #92959A",
"N. c #959A9C",
"B. c #9C9C9B",
"V. c #9A9995",
"C. c #8F908B",
"Z. c #A89789",
"A. c #B59A85",
"S. c #A49D95",
"D. c #BAA38B",
"F. c #A5A29C",
"G. c #B8A899",
"H. c #9C9DA1",
"J. c #969BA3",
"K. c #8F97A2",
"L. c #A19FA3",
"P. c #9DA2A6",
"I. c #9DA4B6",
"U. c #A4A4A4",
"Y. c #A5A5AA",
"T. c #A4A9AB",
"R. c #ABABAC",
"E. c #AAA7A6",
"W. c #B3ADA9",
"Q. c #B7B2AD",
"!. c #ADAEB2",
"~. c #A8ADB7",
"^. c #B1AFB2",
"/. c #ADB2B5",
"(. c #B3B3B4",
"). c #B4B6BA",
"_. c #B6B9BD",
"`. c #BCBBBC",
"'. c #BAB7B6",
"]. c #AFB1AE",
"[. c #C8A787",
"{. c #D5AC87",
"}. c #DAB58C",
"|. c #D9B895",
" X c #CDAD95",
".X c #E3BD98",
"XX c #E3B88E",
"oX c #C2BDBC",
"OX c #C4BBB5",
"+X c #CDB7A7",
"@X c #E1BFA6",
"#X c #BEC0BF",
"$X c #E6C29B",
"%X c #F5C795",
"&X c #C4C1BE",
"*X c #CAC2BC",
"=X c #D4C4B2",
"-X c #E9C8A5",
";X c #F0CCA6",
":X c #F4D4A9",
">X c #F3DAB6",
",X c #EDD1AD",
"<X c #DEC09E",
"1X c #BCBDC2",
"2X c #B7BBC3",
"3X c #C1BFC2",
"4X c #BDC1C5",
"5X c #BEC3CA",
"6X c #C4C2C3",
"7X c #CAC5C4",
"8X c #C3C5CA",
"9X c #C6C9CE",
"0X c #CBCBCD",
"qX c #CBC8C6",
"wX c #D1CECC",
"eX c #D0CAC5",
"rX c #C5CBD2",
"tX c #CBCDD2",
"yX c #C8CDD6",
"uX c #CED1D5",
"iX c #CDD3DB",
"pX c #C7D0D9",
"aX c #D2D2D5",
"sX c #D3D5DB",
"dX c #DBDADC",
"fX c #D7D8DB",
"gX c #D2D0D0",
"hX c #E3E1DD",
"jX c #FAE1C2",
"kX c #DBDDE3",
"lX c #D5DAE3",
"zX c #E0DFE4",
"xX c #DDE1E7",
"cX c #E3E2E5",
"vX c #E3E4EA",
"bX c #EAEAEC",
"nX c #ECECF2",
"mX c #E4E8F2",
"MX c #F1EFF4",
"NX c #F3F3F5",
"BX c #F9F9FB",
"VX c #F1EFF0",
"CX c #EDDFCE",
/* pixels */
"P.P.m.C.m.N.V.V.V.T.n.F.T.].(.'.'.`.Q.W.W.G.3X2X).2X2XpXiXxXvXnXmXnXmXmXnX7.n i x r 3 = r i M 2.C u 6 6 2 6 * % X X X X     + y ",
"T.B.n.b.M.n.k.4./ 4.X.k.H.E.'.4XoX7X0X0XoX3X3XtX3X5X5XpXlXxXxXvXxXvXvXvXxXz.J V N M m M N B V Y M u u u 6 6 < & % % O     O + y ",
"].T.U.F.m.C.H.C.6.j.N.j.T.).8X9X7X8XuXgXOXOXgXtX0XyXpXpXyXiXsXlXxXvXmXvXhXW.7.[ ,.,.` ` ` ' ` K B m u u 6 3 9 & % . . X X X y p ",
"].T.T.P.U./.)./.].P./.#X4X8X0X0X0X0XgXwX3X3XgXaXyXuXyXpXpXiXiXiXlXxXxXxXkXF.7.[ 1.1.1.g.x.x.x.g.U S n m c 7 9 & . . X X @ @ + > ",
"#X/./.T.N.P.B.F.j.l.!.8X8X9X9XrX8X0X8XoXOXoX9X0X0XtXtXaXsXdXlXlXdXlXkXlXaXm.+.' 7.z.B.H.B.E.U.S.6.{ I B m i 3 9 @ @ % X @ ; @ : ",
"4X5X4X_.4XrXrXrX8X5X9X8X9X9XuXuX0X0XtXoX+X`.9X9XyX0XyXsXsXiXiXsXlXsXsXsXiX`.E.L.B.m.Y.R.E.].E.U.m.7.7.[ U J n M i i u u i 4 ; : ",
"4X5X5X5X2X4X#X5X4X8X5X8X8XuXuXuXtXtXuXaX0XtXuXuXyXuXaXdXsXdXkXkXsXkXkXkXsX3X!.^.Y.H.H.Y.B.(.E.S.7.O.[ [ U T I J J V V B C n i 9 ",
"5X5XiXlXpXiXpXpXsX9XtX9X9X0XtXtXtXtXgXuX0XtXaXaXtXsXsXsXkXxXxXxXzXkXlXlXsXyX1X2X).).)._._._.!.L.k.O.{ T Y I J G P B C V F V m > ",
"9XrX5XyXuX0XiX0XpXuXuX8X9X9XtXuX0X0XtXsXuXuXtXuXfXaXaXfXfXkXzXvXcXkXkXlXsX8X8X1X5XrX5X1X).`.!.H.7.1.1.2.{ { Y G J V p B B M p : ",
"4X8X9XrXtXtXtX9XtX8X].].0XF.2X0XB._ 8X].0XqX].uXgXfXaXsXsXfXkXdXdXdXlXlXsXyXtX6X6X1X8X5X4X(.(.F.g.f.g.O.2.{ / K G C C C V B C p ",
"4X5X9X8X9XyXiXtX0X9Xs.d.a.Q a.uXh.A 2Xs.fXk.| n.aXaXsXsXsXsX1XY.).2XsXiXsXsXtX0X8X1X5X5X/.H.(.E.x.f.l.g.1.` ' { ` Y C J Y V C p ",
"5XrX9X5X9X8X8X0X9X9X5XlXxXiXxXnXmX).b.] I.].M.P.).gXuXsXsXaXV.iXsXyXsXuXsXaXtXpX8X^.2X5XP.P.].B.c.x.l.7.1.2.1.U { U Y / I T V Y ",
"9XrX9X5X8X5XrX0XrXrXpXMXnXnXsXNXbXdXP. .d.T.m.B.c.3X`.V.J.aXH.rXyXtX9X0XsXc.b.9X8XY.Y.].P./.T.m.S.g.1.' [ 1.2.2.T ` / T I I J J ",
"5X5X5X9X8X8XrX8X9XiXnXNXMXnXxXuXsXxXsXd.d.n.| W W o.D A | .. .4.m.^.n.| 8XiXk.P. ...b. .b.1X'.{ k.1._ 2.[ g.2.' [ { { { T Y Y I ",
"5X8X9X4X4X8X8XiXmXBXMXcXsX5XvXxXpX0X9XB.k.) s.i.p.) i.v.iX0Xv.~.~.n.d.p.~.yX).N.~ ! ] B.s.E.I k.1.U / K ` ' O.[ [ { [ ' T ' ` U ",
"6X4X8X5X5X8XlXnXnXsX2XyXvXkXvXcXbXsXcX/.!.I p.| j.m.f.v.*XU K z.3Xm.k.h.p.'.T.o.P...K.h.!.V.S V F D J ^ Y O.1.g.U U [ ` / ` { U ",
"5X4X1X6X1XiXnXmXlXyXdXMXMXvXbXzXzXfXtXkXaX+.x ! o.f.k.i.S Q ~ ( !.A F v c s.X.! P./.xXU.#X#XX.u m / U ] 6.' J J ` U ` U U Y Y Y ",
"4X6X4X8X8XnXnXiX7X3XaXnXvXMXVXdXcXaX).vXkX8XuXM.^ E 6 6 Z D | n.].~ ~ ~.h.| ! n.N.O.I 4.uXVX&XF / 7.7.2.M 5 3 = u M { T { Y Y V ",
"8X5X6X6XrXNXkXW.Q vX3XkXMXbXaXBXBXcX0XNXnXMXBXdX^ < F , c b v.} X.! P P ..4.4.X.n.s.6 B qX'.{ P...) ` M 2 2 l l - : V / Y V G ` ",
"8XqX8X9X0XcXsXf.mXhXgX3XcXg.yXBXBXBXBXBXdXvXBXVXS < 5 l ! } A A Z c 2 A = % ~ P.pXwX( n.E.O.| U.D 4.[ = Z c c c 6 6 m Y G V p G ",
"8X8X8X8X8XJ.sX8XVXfXcXzXbXb.VXBXhXE.6XNX`.dXcXcX2X5 = $ l Z v 9 * 1 9 W Z c 4.2XvX&XH.#XV.s.#XpX4XR.v., Z 5 Z c 2 i m J C V C p ",
"qXqX8X8X8X_.sXfX3XgXhXsXaX^.NXbX' z.B.qXhXsXfX(.oXS b ( A ) D W ~ W ~ bXBXfX2XfXQ.&X&Xm.m 4.qXsX8X`.(.J.c 1 c z : u n C h p p a ",
"3X3X8X8X8X1XlXkXzXkXsXcXQ.kXNXeXS _ X.E.BXR.aXx.K = 5 Z } h.c.2X#X).S.eXbXNXhX4.] 6XF.I N.#X6X#X8XaX0X/.2XZ , 1 u u U C V p B p ",
"3X3X1X5X1X8XsXnXBXzXNXMXL.xXBXcXI  .S.Y.VXz.eXF.F 3 F ( ( | N.(.z.B.2.O.&X*X{ _ s.T P M._.].4.#XuXsXuX8XR.rXA A B I U V p V M a ",
"3X1X1X1X3XyXM.vXMXnXvXvXY.kX3XcXcXL.2XNXnXz.eXU.( s.{ D o. .+.V G [ 1.v V ` I } m.4 4.(._.#X9XgXaXfXaXtXqXbX8X| P ] O.Y Y K G V ",
"2X2X3X1X1X1Xv.uXzX0XxXQ.| sXgXzXdXR.NXNXhXl.U s.R.R.k.M.L.+.D E I [ 8.T K ; : n 4 3 P ].9X6X9XtX0X0XtXeXhXfXk./.B.U.F.1.K V C G ",
"1X`.3X8X3X1X0XbXnXcXzX`.( sXwXaXhXQ.qXOXs...! P.F.!.1XB./ S 3 ^ D 7 ( r r 8 < 8 % 6 : P x.E.6XaXaXaXwXgX#Xg./.`.6.{ Y U ` ` G G ",
"1X`.8X3X3X3X3XkXBXBXBXW.J.tXeXdXhXhX6X1.X.R.| R.L.vXgXC * < 3 S  .S v Z i.^ S 4 D n.4.c D f./.fXfXuXwXqXz.4.E.F./ [ T O.Y T T J ",
"`.3X6X`.1X1X3X8XVXBXBXS.).aXaXfXwXW.[ ( T.Y.R.V.F.aX!.F 5 0 n b 6.D F m ( ) F 3 4.4.I 7.N.] 4.fXaXhXaXF.f.U.6.8. X}. X|.{.}.}. X",
"3X3XoX1X6X8X3X6XwXvXdX3XF.oXwXW.l.) ) | _.^.B.N.B l O.S l * 6 D ..F ' I K  .' b F.i I ] N.7.C.F.fXhXC.] W.W.|.,X-X;X:X:X,X-X;X;X",
"oXoX3X6XqXqX0XqX8XeX8X3Xf.3X1.' F O.n c.'.E.U.V., A i...7 * } h.V.) B m n  .m.[ E.B / 4.C.n ] ].#X7.n V.K w.}.}.}.}.}.}.}.}.XX{.",
"3X6X3X7X7X7X7X3XqX6X1X3Xg.+.J.Y.S W h._.`.(.U.K b h.R...< c.h.c.k...! ~ c.i.k.g.U.} P.].4.g.C.9Xp i 7.] S p ,.-.-.-.:.R L h L G ",
"3X7X8X7X8X7X8X7X1X`.`.6X(.J.wX].l.L.).l.B.1.+.D 3 h.L.K 6 M.H.R.M.s.m.V.D 8 F g.7.l.m B.4.C.4.C.u u i F.x.N Z.U.S.S.S.S.Z.S.Z.x.",
"7X8X7X7X3X3X1X3X3X1X6X`.(.^.OXW.Y.Y.uX'.1.1.2.G 3 _ F 7 5 a. .j.j.n 7 = & , 8 m 4 U n 7.O.6.N.k.F g.+X[. XZ.@X,XjX>X>X>X,X>X>X>X",
"eX3X3X6X`.3X1X`.3X`.6X6X`...i.B.B.^.aX6.( W W S p l n Z , } f.( A A Z 3 * l K c _ D S 4.m.Q.E.].i [ 8.A. X+X|.=X,X>X>X>X,X,X;X,X",
"3XoX`.).`.`.3X3X&X8XoX^.(.0XiX'.j.).m.F Z W A x z 7 ( W n n } v.M.f.x 3 b N 7 ) I P i u m D u U u u C D.r.[.[.[.[. X X|.}.}.{.[.",
"`.`.^.).`.`.3X7X7X6XW.8.).kXOXS.j.z.S Z a.} x z z 8 ) E W c.c.c.E < = b N x ^ ^ S B F ( | ~ ) } i * i G R s f h f h H H h h h h ",
"3X).^.).6X`.*X6X7X&Xz.7.W.OXS.S.j.K b b Z F z 3 z - ....E R.R.B.S r r r 5 3 v ^ } s.N.T.N.) ) m.n & S _ ] : % & 0 0 0 ; : 4 > ; ",
"6X3X`.OXOX6X7XeX*X3XQ.g.U.Z.,.U x.F b Z z x < z 3 b H.i.( Y.B.K T L 3 > m ^ h.b.v.n.I.N.v.F 3 * 9 * u U J J B M J K T ,.,.<.,.,.",
"oXoX6X&X7XoX7XeXqXoX`.`.3XOX@XA.1.c.R.A b l l x < F Y.m.F L.m = r N L t = x o.| 4.P.b. .} ) = X - * 1 p p -.D.[.D.[.D. X[.D.[.[.",
"6X7X6X*X*X`.6XeX7X&X&XoXoX@X;X.X{.Z.uX .3 l 8 < F  .^ o.Z - . X X * * z r - 0 5 E i.( b u 2 < < ^ -.C K 0 F A.D.[.A.A.A.A.D.D. X",
"6X7XeX6X6X*X7XqXeX7X*X6X'.-X,X;X-X3XE.N 5 v.^ Z ..o...! Z $ X < 0 . 0 < r 0 > < 8 n z ~ | B % 2 ' T :.H > ,.J Z.A.A.Z.w.q.<.<.<.",
"`.oX6X*XoX3X6XOXqX&X&XqXoXr.r.t.e.S.+.E ! R.2.( E.1.- S m X 3 b z 0 0 < - w - $ o $ 1 i.! 2 9 % r q > - 0 > 0 ; ; ; q q q # ; + ",
"3X`.oXoX7XeXqX3XqX6X`.`.OXw.e.>.3.-...S p.R.N ( 8XO.$ b l . z , Z * . < < 3 0 $ $ l < +.c u u - v ; O @ = : 3 7 8 : 8 r w a r m ",
"`.`.`.'.`.3X7X8X`.OX'.OX=X$X;X$X{.' 1.Z n.L.+._ R.7.. Z z - = c x 0 < < < 5 $ $ A l = 1 , 5 - u # ; a ,.;.<.<.3.<.<.q.w.q.q.q.0.",
"`.'.).).OX`.`.OX`.4X6XOX:X:X:X:X%Xo...F ~.sXL.i.x.g.4 c , ^ = < , b 5 z 3 z $ $ / , v b > 4 H ;.;.=.5.r.t.t.t.{.@X.X.X-X:X-X;X$X",
"`.`.1X3X`.`._.`.#XoX&X*XjX>X:X%XXXv A E M.j.f.B.W.o.K < S 3 5 = z z Z 1 z 8 $ $ * 1 X.T @.$.=.>.>.5.5.u.u.u.{.t.A.{. X$X;X;X;X;X",
"(.(.`.oX).`.`.`.6X`.'.,XjXjX>X$X X^ E E ) x b n.0X1.m.0 3 < c A A b 5 b x 3 $ X * ! B g @.*.;.5.5.5.e.y.u.{.{.XXXX-X$X$X$X,X:X:X",
"`._.'.`.'.'.).oX`.(.'.<X,X:X,X$X[.( ( | ! 7 * v.aXg.(.> - , 3 6 6 7 n c u % * X - P s h $.$.;.5.5.t.t.t.y.y.y.}.XX:X:X>X:X:X$X<X",
"(.(.'.(.).`.`.`.'.`.'.[.*.h %.G :.^ f.v < c 3 } dXO.(.: 4 8 8 3 : u S u - . % * u u u @ # # # e e e s k s w w s s s s w : @ @ O ",
"oX^.^.(.).(.OX`.&X(.'.{.5.@.>.s I ) s.i - F n 2 bX .z.n   * 7 n n Z u = < . % * m u u . X     e e h j @.j X     X X           O ",
"`.`.(.`.oX`.^.^.`.oXOX$X|.r.}.Y | k.g.n 3 i B . aX] V.m..   X X X X X X 2 % % 9 A F B - 9 X   k k $.$.5.5.; % % - % - 9 : : u u ",
"`.`.`.(.(.^.).(.#X'.+X-X-X|. X2.m.Y.R.V.g.6.o.O sX .H.].b 1 1 9 9 9 2 2 A u u u 1 * n u : : ; @.j ;.0.5.w.w.w.V.F.w.S.D.y.G.D.G.",
"(.oX'.`.Q.^.W.).'.W.@X-X-X<X|.2.c.i.(._.R.!.B.- H.) N._.o.} s.s.s.s.s.j.h.P I ! 4.u u u i *.-.:.H ;.5.y.}.<X}.<X<X}.$X-X$X<X}.$X",
"(.'.(.E.(.].W.).OX*X:X:X%X|.|.z.k.A h.k.X.N.H.B ..k.!._.C.s.Y.J._./.4X_._._ v n  .D n u F :.;.0.5.y.w.y.}.$X<X$X<X}.<X$X$X$X<X<X",
"Q.(.(.R.^.'.oXOX].+X<X|.|.|.}.g.H.P.z.c.j.f.o...F f./.!.j.| ^ X.| ..4.} ! A X.! ) E v A ^ 9.e.r.t.y.}.}.<X$X$X}.$X}.}.}.<X}.<X}.",
"^.R.^.(.R.^.^.!.].G.G.F.A.l.8.8.} f.f.) E ! ^ +.+.c.Y.c.i.F } o.P B P D F 3 < 3 3 * b E C 0.e.;.;.>.u.e.t.[.[.q.w.w.Z.q.q.8.q.8.",
"!.(.^.(.^.!.^.!.Q.W.+X+X XG.G.Z.V N x 6 l x 9 3 ( j.V.n.c.F n b m c n b l 5 1 5 l 8 8 7 a :.-.=.>.e.t.e.r.{.[.[.w.w.e.9.9.<.-.T ",
"E.^.^.!.^.(.OX^.W.-.f L :.-.-.h r _ B S b n v & +.j.f.i.k.x & , 6 = 1 1 = = % 6 = & 0 - a d h f s @.%.*.%.%.H a a p h a a a f f ",
"].R.R.^.^.^.Y.R.G.<.-.<.<.;.;.f o X = 8 ; = 8 8 A 1. .I ) 5 8 ; B 6 7 4 7 = & z } S ; * O . # q e g H %.%.:.g e h a a h f f a a ",
"R.^.!.(.^.R.Y.~./.A.y.{.}..X.Xr.  O # > w t q e E ^ x S D : & ; > q w q > w : > b r ; q q # # e t f @.j %.f g L %.%.H %.j f f d ",
"Y.Y.Y.R.Y.!.R.!.!.G.[.{.}.}.|..XO > t s t f d H C K p v r q q ; ; e d y e e w w e t d d k d q k t f g h g t H &.=.%.#.%.=.%.j j ",
"R.Y.Y.Y.Y.R.!.!.Y.F.A.w.[.[. X{.e @.*.&.&.%.&.&.g G C f a a d e w s #.k d w e k k #.#.#.#.s y d k #.#.g d f &.&.=.>.&.&.=.=.#.#.",
"Y.R.H.Y.U.Y.~./.E.B.-.;.3.;.;.0.;.e.5.>.=.;.=.=.%.t g %.%.=.&.%.@.s q q w h %.%.=.%.=.=.=.#.$.&.$.$.$.$.#.#.#.#.k #.k k d e e y "
};
