/* XPM */
static char *image_41738162759[] = {
/* columns rows colors chars-per-pixel */
"64 64 254 2 ",
"   c #080B05",
".  c #140C03",
"X  c #1B0C05",
"o  c #150905",
"O  c #0A140A",
"+  c #18170B",
"@  c #0C1814",
"#  c #161915",
"$  c #270B07",
"%  c #350D0B",
"&  c #281806",
"*  c #341B08",
"=  c #271916",
"-  c #371719",
";  c #380F11",
":  c #1A2318",
">  c #19210E",
",  c #3B2B0B",
"<  c #392508",
"1  c #3D300C",
"2  c #282818",
"3  c #35281A",
"4  c #39331B",
"5  c #292C11",
"6  c #3C1A23",
"7  c #1B2726",
"8  c #1C3730",
"9  c #252827",
"0  c #382826",
"q  c #393527",
"w  c #272C34",
"e  c #372A34",
"r  c #2B3439",
"t  c #373937",
"y  c #2A3526",
"u  c #5E1B0B",
"i  c #441517",
"p  c #452A04",
"a  c #4B2B05",
"s  c #442C0A",
"d  c #4A2C0A",
"f  c #452605",
"g  c #512E08",
"h  c #43330E",
"j  c #52310C",
"k  c #4A3718",
"l  c #553818",
"z  c #4B2C17",
"x  c #69230B",
"c  c #6E2E18",
"v  c #481A29",
"b  c #433A2A",
"n  c #463927",
"m  c #583A2A",
"M  c #483B35",
"N  c #563839",
"B  c #4C2731",
"V  c #6E3C2F",
"C  c #621A0A",
"Z  c #3A453C",
"A  c #3A463A",
"S  c #2B423A",
"D  c #57421C",
"F  c #47412D",
"G  c #584627",
"H  c #4C4232",
"J  c #49453A",
"K  c #564838",
"L  c #535238",
"P  c #644A28",
"I  c #674D38",
"U  c #685338",
"Y  c #745737",
"T  c #70502F",
"R  c #383A45",
"E  c #333445",
"W  c #563B43",
"Q  c #4C3645",
"!  c #3E4B41",
"~  c #3B4746",
"^  c #384D51",
"/  c #3B5C63",
"(  c #454B46",
")  c #564947",
"_  c #44534B",
"`  c #49544B",
"'  c #585648",
"]  c #4C5B53",
"[  c #495956",
"{  c #575757",
"}  c #4E4957",
"|  c #654E45",
" . c #685548",
".. c #74554A",
"X. c #79574C",
"o. c #7B5C4C",
"O. c #765A48",
"+. c #665A55",
"@. c #7D5D52",
"#. c #775758",
"$. c #6E4F54",
"%. c #4E615A",
"&. c #55635B",
"*. c #5E624F",
"=. c #7C624D",
"-. c #7A6146",
";. c #68665A",
":. c #7E6252",
">. c #76645C",
",. c #6A674C",
"<. c #535A68",
"1. c #6C5964",
"2. c #546463",
"3. c #556966",
"4. c #566B6A",
"5. c #5C6D6D",
"6. c #596867",
"7. c #5B726C",
"8. c #5D6E71",
"9. c #566D75",
"0. c #5E7172",
"q. c #5C7178",
"w. c #4C656A",
"e. c #616D6E",
"r. c #696968",
"t. c #7A6A66",
"y. c #62726E",
"u. c #667165",
"i. c #7C746B",
"p. c #626E72",
"a. c #696A74",
"s. c #637274",
"d. c #697275",
"f. c #65757A",
"g. c #6A767B",
"h. c #6B7A7C",
"j. c #66797A",
"k. c #7A7679",
"l. c #776775",
"z. c #815E53",
"x. c #83654A",
"c. c #826354",
"v. c #836559",
"b. c #876655",
"n. c #966855",
"m. c #967759",
"M. c #8E7255",
"N. c #A46F5A",
"B. c #846B68",
"V. c #87746B",
"C. c #967768",
"Z. c #887A77",
"A. c #967979",
"S. c #8C6E69",
"D. c #AB7869",
"F. c #74837A",
"G. c #88847A",
"H. c #988679",
"J. c #9C8369",
"K. c #A78879",
"L. c #B5897A",
"P. c #B4987A",
"I. c #A68A6F",
"U. c #6B7C83",
"Y. c #687B87",
"T. c #727E85",
"R. c #76728E",
"E. c #5F7582",
"W. c #937B84",
"Q. c #A37F83",
"!. c #6C8385",
"~. c #728385",
"^. c #73858A",
"/. c #74898D",
"(. c #7A8889",
"). c #758B92",
"_. c #798C94",
"`. c #7B949A",
"'. c #738D90",
"]. c #7B98A2",
"[. c #7793AA",
"{. c #5C8299",
"}. c #868A88",
"|. c #968886",
" X c #97948C",
".X c #828E93",
"XX c #878D9A",
"oX c #839394",
"OX c #8B9C9B",
"+X c #879699",
"@X c #979897",
"#X c #8D8E92",
"$X c #A2968B",
"%X c #BA9589",
"&X c #A59B97",
"*X c #AD8A85",
"=X c #90A49C",
"-X c #A8A39C",
";X c #BAA48B",
":X c #8B9CA3",
">X c #849CA5",
",X c #9698A3",
"<X c #8AA4A9",
"1X c #9CAAAA",
"2X c #95A6A8",
"3X c #8BA9B4",
"4X c #97ABB5",
"5X c #99B4BA",
"6X c #9AB3A9",
"7X c #A6A9A6",
"8X c #A6B4AD",
"9X c #A5ACB5",
"0X c #A6B7B7",
"qX c #B4B0B0",
"wX c #CBB595",
"eX c #C7AF8F",
"rX c #C8BAB0",
"tX c #AAC2BB",
"yX c #B9C8B5",
"uX c #D7C29D",
"iX c #D8C5A5",
"pX c #C7C7B6",
"aX c #CECFB3",
"sX c #E6D5B2",
"dX c #DAE0BE",
"fX c #9CB8C4",
"gX c #A6BBC6",
"hX c #B3B9C6",
"jX c #A9C4C9",
"kX c #B7C8C9",
"lX c #BBD1CA",
"zX c #ABC6D4",
"xX c #B9CBD7",
"cX c #B7D4DB",
"vX c #AFD0DF",
"bX c #B9D6E6",
"nX c #B9D6EA",
"mX c #A8CCD8",
"MX c #C5D6D8",
"NX c #CDD0CE",
"BX c #E6E5D8",
"VX c #C7DBE5",
"CX c #CEDDEB",
"ZX c #CCE9F4",
"AX c #D7ECF4",
"SX c #D7F4F9",
"DX c #CFE6E9",
"FX c #E5EAED",
"GX c #E9F8FA",
"HX c #F4FCFC",
"JX c #FBFCFC",
"KX c #F7F7F6",
"LX c #F1EDEC",
"PX c #DDDCD5",
/* pixels */
"LXFXFXGXKXJXJXJXJXLXW.R.r.G.h.<X'.#XF.lXjXjX@X8X8XG.jX5X=X@XOXtXvX3X`.G.Y c x X.S.K.%X%XN.n.v.:.M.c.:.M.:.=.=.:.:.,.=.,.=.-.-.a ",
"FXDXkXzXMXMXGXJXKXGXgX+X_.=XF.9.=X=X}.lXtXtX=X0X5X=XjX<X`.7.^ / w.7.F.G.T c C z.S.I.*X%XD.m.v.:.>.b.:.=.M.:.=.:.=.=.=.=.=.=.Y p ",
"yXBXDX9X9XkXcXbXCXVX)._.OX6X=X_._.OX}.lXkXjX1XMX0X=X6X{.^ 8 7 8 8 : S ' V c u x.S.A.%X%Xn.n.v.v.M.:.:.:.:.:.=.=.=.=.=.-.-.=.U a ",
"PXyXNXMXtXMXAXVXhX3X[.(.'.6X=X4.2X2XoXlXkXlX=XMX5XOXOX4.2.;.` t S q S : c c C z.C.K.%X%XN.n.v.v.>.:.b.M.:.=.M.:.x.=.-.=.-.-.P a ",
"dXaXtX6X=X0XtXjX6XfX3X!.tX6XyXlXVX1XoXlXkXMX2XlX1XOX~.[ 7X-X XZ.i.U F > f x C n.S.K.%XL.N.b.v.v.v.b.c.c.M.=.:.x.=.=.=.O.=.-.G f ",
"MXlXyXdXyXyXMXDXVXcX5XF.yX6XtX5XcX6X@XlXlXcX2XNX1XoXw.( |.$XH.H.t. .q + * x u S.S.K.%X%XN.n.:.b.b.:.c.v.:.:.=.:.:.=.:.:.=.=.G a ",
"MX5X8XaXyX6XDXcXcXbX].F.lX6XtX[.3X=XoXkXkXxX2XkX1XOX[ ( G.>.>.>.' J 4 + % x u S.S.*X%X*XN.n.v.b.v.:.v.:.:.:.:.:.:.=.@.=.o.x.l a ",
"cX5XaXaXyX=XyX6XcX5X`.'.lX5XtX'.<X2X}.kXlXMX2XNX1X=X4._ ` 9 q +.2 > 5 > * x C S.S.L.%XL.N.n.b.b.v.v.v.:.:.:.c.:.:.=.=.:.o.x.l a ",
"5XF.aXdXyX6XF.F.5X<X3X].lXtXtX`.<X1XoXlXkXMX7XlX0X1X@Xr.k.1.B.S.K ) n , z x C C.S.*X%X*Xn.n.z.c.c.c.b.c.c.x.c.c.x.:.=.=.=.=.k a ",
"{.F.=X'.F.]./ F.`.].[.'.lX6XtX5XjX0X#XkXkXkX=XkX0X1X0X|.A.B.V.t.N  .m 4 N c C C.C.*X%XL.N.n.z.c.c.z.c.c.z.c.=.c.:.=.=.=.=.-.j d ",
"<X6X5XtXtXmX{.%.cXfX{.{.tX6X6XjXcX6X+XkXkXlX=XlX5X2XMX7XV.+.#.H n K b q i.S.v C.D.D.%XL.N.z.b.v.b.c.c.c.c.c.v.@.:.=.:.=.=.-.j s ",
"fXfXfXjXmXmX'.7.tX3X3X<XOX6XtXjXDX5X@XkXlXkX2XNXgXPXKXkXZ.t.l.+.M H n t T.9XZ.A.A.%X%XL.N.z.z.z.v.z.c.c.c.c.:.@.:.:.=.:.=.Y g , ",
"'.5XfX5X5X5X'.9.5X3X].].'.=X6XjXbX0XOXkXMX0X@XNXFXJXJXVX}.V.Z.t.| M t L +XgXzX@XA.D.%X*XN.n.z.z.z.z.b.z.v.c.:.c.:.x.:.=.=.T a < ",
"6X].6X].<X6X].{.5X3X].'./.+X<XmXVXgX#XhXyX9X@XNXHXJXGXVX#Xt.r.#.J F J ' 3XzXvXkXW.%X%XD.N.z.z.z.z.b.z.v.z.:.z.v.z.z.z.=.o.T a < ",
"`.F.].].<X3X].].3X].`.'.'.OXOXmXzX0X#XZ.} W } LXJXJXHXcX2X' ) K J b n { 5XbXZXbX,XA.%XD.n.z.z.#.v.z.v.z.v.:.o.c.:.x.o.o.O.P a l ",
"%.F.].].<XfXfX5X3X3X`.'.~.oXoXzXfX9XZ.Q 6 i l.JXJXJXGXbXgXt.K G m n F p.gXVXZXnXgXR Q ..n.z.z.z.z.z.@.v.c.z.c.z.@.o.x.o.o.P a j ",
"A F.`.=X6X6X].3X<X`.'././.!./.jXY.R B v v - XXJXJXHXSXnXhX(.K m G H r.XXmXSXSXZXvXw.7 : b >.:.x.@.z.z.z.b.@.:.v.@.:.o.=.-.l g l ",
"8 F.'.`.].`.].].].`.`._.+X+X].>X} E B W Q 7 9XJXJXGXSXnX,XXXG.I  .t.k.XXvXSXSXSXnXw.@ : # _ |.v.@.@.z.z.z.>.:.@.@.:.o.@.o.l g D ",
"F.F.=X5XfX].6X5X3X[.].`.'.'.).E.E e #.|.r 7 ,XJXJXHXSXbX#X#Xk.G.V.G.(.d.VXGXSXSXnXY.@ @ @ 8 i.i.z.@.z.z.:.@.@.c.@.z.o.=.O.l g l ",
"F.].5XmXfXfX5XfX3X3X3X<X`.'.!.<.E } -X1.: w ,XJXJXHXGXbX XNX@Xi.V.F.9X}.SXHXGXSXnXE.@ @ @ t ;.,.@.@.@.z.:.@.@.@.@.@.o.@.O.j g z ",
"].6XfXfXmXmXmXfXfX3X3X[.].).Y.^ r Z.W.v 6 w hXJXHXHXSXVX$XpXxX#X}.1XxX-XHXJXHXSXvXE.@ @ : H ' ;.#.@.@.@.#.z.X.z.@.o.o.o.Y g d $ ",
"<X5X5XjXfXfXfX3X<X].].`.).T.Y.} } W.W 6 - e CXJXHXHXSXVX&XrXFXNX7XxX#XqXHXJXHXSXvXw.@ O t F ' ;.>.@.@.@.z.X.z.z.z.X.o.o.Y g f X ",
"`.`.'.'.].].].'._.)._._.T.,X&X Xk.t.v = v B NXJXHXHXGXbX$XiXFXFXhX9XH.pXJXJXHXSXfX<.  @ A n L u.>...O.@.X.X.X.X.o.o.X.O.Y a f & ",
"=X`.F.'.'.'.].'._./.Y.T.~.qX&X$Xi.#.6 ; 6 B qXJXJXHXSXxX XiXBXAXgX4X$XPXJXJXHXSXfXw.O O + q M d.;.....X.X.@.X.@.X.o.O.O.I a < , ",
"=XF.!.'././././.^.Y.T.~.qXqXW.-Xi.+.6 = e e hXJXJXGXGXxX$XiXdXAXzX9X%XPXJXJXHXAXfX^   O O 2 @ J M I X...X.X.X.X.X.O.O.O.P d * < ",
"'.F.~.~./.+XXX`._.!.U.8XqXZ.A.&XH.' 6 X 6 e W.JXJXGXSXhX$XiXsXMXCX&XwXPXJXJXHXZX3XR   O O +   @ $ B ......X.X.O.X.X.....P a * s ",
"F.~.'.'././.).^.Y.U.}.NXk.#.W. XZ.1.0 - e 6 } KXHXGXZXhX$XuXsXMXPX;XrXBXJXKXGXZX>Xr O + y       o - ............X.O.X.o.G a & p ",
"'.'.~.F.U.j.Y.U.h.h.&XW.B.$.+.S.B.Z.} e v Q W FXHXGXZXgXH.iXsXPXNXwXwXLXJXKXHXAX>X7 + 0 2       + & i I ........O.X.O.o.l p * p ",
"`./.U.!.j.U.h.h.h.j.1.v W N S. XhXLXKXCXhXNXR.CXHXGXZXgXA.wXsXaXiXuXiXLXJXJXHXZX).9 b q +     @ O $ ; B ..............O.j a $ a ",
"!.F.h.U.h.j.h.~.j.d.1.v ; i W hXJXJXJXJXKXCXR.,XHXSXCX9XK.eXsXiXwXiXrXKXJXJXHXvX8.0 b 0 + O # @   X $ % I | .... .....X.g a * a ",
"F.j.j.h.!.h.h.g.f.d.k.M ; % B PXJXJXJXLXCX,XW.W.FXAXCX9XH.eXwXsXwXwXrXKXJXHXAXfX} e Z { a.;.+.L =   o * I .... . .Y  .Y d f & g ",
"!.`.U.U.~.f.f.s.d.d.s.` 0 N <.KXJXJXJXVX,XW.&XQ.&X9XhXhXK.wXiXiX;XwXrXKXJXGXvXXXY.2XjXVXAXzXr.' 0 . . 3 J J ) J L K K k f p 5 g ",
"_./.`.).^.~.g.U.T.T.U.[ ` Z.7XJXJXJXZXhX1.Q.Q.A.Q.#.1.@XP.wXuXeX%X;XrXJXGXMX,X<.2XZXSXVXcXZX7X+.b X   9 &.6.p.3.3.;.,.D f h H d ",
"~.U.Y.h.f.g.T.Y.).^.f.f.e.} qXHXKXAXxXfX1.A.W.%XW.#.$.A.I.eXwXeXP.;XpXLXxX#X1.1.l.zXSXSXVXZXzX{ ) #   ! 6.5.0.7.0.u.,.l f k H j ",
"d.f.f.0.f.g.^.h.Y.f.f.d.g.{ 9XKXGXCXhX4X{ S.-XhX@XW | k.I.eXeXP.I.P.pXhX|.W.|.t.$.(.ZXAXnXvXfXf.O   7 { [ 2.4.4.0.u.,.l f k n d ",
"j.f.h.h.g.h.T.U.U.Y.h.~.h.h.#XCXAXxXgX>XR.a.a.a.r.N K V.C.P.eXeXI.J.7X|.&XqX X+.| $.fXZXZX3X3Xh.  O t _ _ 2.0.0.0.d.,.h f 4 4 g ",
"2X1X7X8X9X9X8X=XY.f.f.f.h.d.g.4XnXhXfXXX>X8.7 { J 3 b | m.P.P.I.J.C.$XA.|. XG.;.) ) a.nXnXgX:X<.@ t ( _ _ 2.q.s.j.y. .s f 5 1 d ",
"7X1X1X8X8X8X8X2XU.g.g.f.d.g.g.h.<XgX4X>X/.E   @ O # = K m.P.P.J.m.n.t.l.r.{ { ) N ) } zXvX5X)._ t A A ! ( 2.5.j.0.y.U d f & < a ",
"2X1X1X8X8X8X0X,Xf.g.T.Y.s.g.g.d.a.T.,XXX6.@ # # @ + + m J.I.P.J.m.x.m N q 9 ' { e._.fXvXzX3Xp.` A A A ( _ 2.4.s.F.7.K a < & < a ",
"7X8X9X8X8X1X0X:Xs.d.U.Y.d.d.d.p.s.T.xX,X{ # 9 { @ O + K J.I.P.M.m.x.m i 2 4 q r R.,XfXfX5X.X(.` S A A Z ] 2.0.4.0.&.G f f & f a ",
"+X+X+XoX.X.XoX~.s.s.d.s.a.d.s.d.s..XAX,X1.7 7 E # # = I M.J.I.G.M.-.m i X o 0 O E w.T.`.XX(.~.~ Z Z ! ] &.6.0.0.j.u.K p , & p p ",
"h.h.f.f.f.f.s.d.g.h.h.h.h.e.s.d.p.9XAXQ Q E w 7 7 # + I M.m.V.G.M.Y m i o   $ $ O O r ^.oX_.h.t t A A Z [ 7.0.0.0.u.G f f & a f ",
"Y.U.!.^.!.h.F.h.f.p.p.p.a.p.e.a.a.kXhXQ r.t w 7 7 # = U m.J.V.k.x.x.m i o o X = .   9 .X`.oXh.R ( A ( ( [ 5.0.0.0.u.D p < & a f ",
"^.~.~.!.j.s.q.q.f.p.p.f.p.s.d.p.Y.CXgX9 k.<.w w 9 # 5 -.J.J.k.W.o.X.c i $ $ X X .   9 .XXX.Xr._ ` A ! ( ` 6.4.7.0.u.D < < * a < ",
"h.s.s.d.d.0.0.0.s.p.p.p.a.p.p.p.a.xX[.e V.B.} r 9 # 3 o.m.I.a.R.O.Y m i $ $ X X . . t _..XXXd.` ~ A ( _ _ 3.2.3.4.u.l f * * p p ",
"0.0.0.5.s.0.0.0.0.p.p.p.p.p.e.8.E.XX9.e B.>.t.( 9 # 3 Y M.C.<.<.Y T m ; $ . 3 X X 2 J .XXXoXy.Z t Z Z ( _ 3.4.0.7.*.k a * < a f ",
"s.s.5.0.e.s.y.y.8.5.p.5.p.p.p.a.a.<.E t t.>.t.l.{ } k x.m.b.{ 9. .Y k % $ . 3 3 3 3 ( OX>X_.d.Z Z Z Z _ ] 3.7.j.s.;.h a * < a p ",
"y.5.s.5.e.0.s.p.p.p.e.p.5.5.8.p.<.Q w t V.t.B.Z.G.k.G -.m.O.t ` U T z % $ = M H n 0 +.<XXX_.6.J t A A _ %.3.3.7.y.*.h f & < a p ",
"5.p.q.y.5.p.s.s.e.s.s.p.s.f.f.p.<.Q w } Z.B.B.V.V.+.k Y M.Y 4 q U T G ) n b K M n q 6.:XOX.Xe.~ A Z Z _ _ 3.7.0.s.*.h p & f a a ",
"5.y.s.s.s.s.e.p.g.T.8.g.T.Y.U.f.{ R r ( V.>.V.V.i.+.k U -.U 1 D T I I  .b n H H n 4 { :X:X_.6.Z Z Z ! _ %.3.7.q.u.L s p + p a p ",
"0.s.5.s.5.e.5.p.8.8.5.p.g.s.p.8.} e r ) B.>.t.B.t.) k U -.P & < G P K >.M n K F n q 6.2X:X.X&.! A ! A ] %.4.0.s.u.L a p & f p p ",
"5.5.u.5.y.5.5.p.5.p.p.s.e.e.e.e.) e w { V.t.B.V.B.) k P Y G < < G P I +.b 4 F m n n { ,X:X_.] A A ! A ] %.2.7.7.;.G s p + a a p ",
"e.y.y.5.0.e.8.8.8.p.p.p.5.p.e.e.W e w +.V.t.v.V.V.' k P Y m < < G P U *.n 4 M M n b J <X:X.X] A A _ ! ^ 3.3.9.0.] G d < , d p p ",
"e.5.5.0.0.5.y.q.f.p.e.8.e.d.e.6.W w w ( |.V.V.Z.Z.+.k G T G < < G L U +.n q n K L b e 3X:X^.] Z A A ! %.7.7.7.s.*.l a s l a p p ",
"y.7.e.s.0.0.s.0.8.8.p.p.p.e.e.p.l.w 7 ( -X X X-X$Xi.G D T D > < G G m K n 4 K +.' F 9 ,X>XT._ ( L ! ^ _ 4.4.w.7.' D a s k a p p ",
"7.0.0.5.4.5.5.0.8.8.8.p.5.5.e.g.&Xr 9 ( -X@X7X-X&XG.F D T D & , G k * - * q ' *.' b 9 OXoX(._ ! A A ^ %.2.3.3.7.L k p d h a p p ",
"7.y.5.5.s.5.5.4.4.8.8.0.6.5.5.(.qXt 7 ( &X&X7X7X XG.A D P D < , G n % % X X 3 M J q = :XoX_.! ! A ! ] %.&.3.3.7.L k a d f a f p ",
"5.0.5.s.j.0.5.5.4.8.0.0.5.6.5.#X-XR 7 R &X&X-X@X XF.F D P D < 1 G k % % o   X $ $ X # oX_.T.^ ! ^ %.%.3.%.%.3.%.L s p , < a p p ",
"y.5.5.y.5.5.5.s.8.8.q.0.5.5.5.@X-XQ 7 9 Z.7X@X XH.G.F h D G , 1 G z % % X . . X X o + oX_.s._ ! %.%.] %.%.] %.A L p p & < a p p ",
"y.5.5.5.5.5.4.7.5.5.0.0.6.4.7.@X7XW = 9 N |.H.G.}.G.F 1 D P , 1 G z % & . . X X o . # OXOXd._ [ [ [ %.&.A y y y F p p > , a p p ",
"y.6.y.y.6.7.6.7.6.6.4.0.5.4.5. X-XW = 9 6 M >.G. XG.J 1 D P 1 1 G f % $ . X X X X   # 2X=Xy._ ] %.] %.&.y A 5 5 4 s a > , a p p ",
"6.7.5.5.7.3.7.6.4.4.q.5.4.4.6.Z.G.Q - = - % - ' F.' 5 1 D P 1 h G * f $ . . X X . O : 2X2Xy._ ] ] %.2.&.A 4 F L L p p > s p p p ",
"7.7.7.4.7.3.6.7.4.6.4.4.3.2.u.Z.V.) 6 - + $ & v e = & 1 1 D h k G < % % X . . .     q =X=X3._ ] ] %.%.%.J F F L G a 1 > p a p 1 ",
"6.6.5.y.6.6.3.6.6.3.3.3.2.&.6.G.Z.) = v # $ % - - % & 4 1 , 1 k G < % $ . . .       q F.=X&.A ] _ _ _ ! _ J L *.L h 1 4 h p p , "
};
